<svg xmlns="http://www.w3.org/2000/svg" xmlns:xlink="http://www.w3.org/1999/xlink" width="500" zoomAndPan="magnify" viewBox="0 0 375 374.999991" height="500" preserveAspectRatio="xMidYMid meet" version="1.0"><defs><clipPath id="id1"><path d="M 38 7.632812 L 133 7.632812 L 133 218 L 38 218 Z M 38 7.632812 " clip-rule="nonzero"/></clipPath><clipPath id="id2"><path d="M 67 27 L 367.632812 27 L 367.632812 317 L 67 317 Z M 67 27 " clip-rule="nonzero"/></clipPath><clipPath id="id3"><path d="M 141 27 L 367.632812 27 L 367.632812 290 L 141 290 Z M 141 27 " clip-rule="nonzero"/></clipPath><clipPath id="id4"><path d="M 57.074219 26.824219 L 81.824219 26.824219 L 81.824219 51.574219 L 57.074219 51.574219 Z M 57.074219 26.824219 " clip-rule="nonzero"/></clipPath></defs><path fill="#ffac33" d="M 236.296875 337.683594 C 235.320312 335.890625 233.804688 334.671875 232.128906 333.785156 C 216.203125 316.773438 227.519531 296.816406 227.519531 296.816406 C 227.519531 291.304688 237.492188 276.875 227.519531 276.875 L 217.546875 286.847656 C 207.574219 296.816406 207.574219 326.734375 207.574219 326.734375 L 187.632812 326.734375 C 182.117188 326.734375 177.660156 331.191406 177.660156 336.707031 C 177.660156 342.222656 182.117188 346.679688 187.632812 346.679688 L 198.671875 346.679688 L 196.457031 347.875 C 191.609375 350.5 189.804688 356.542969 192.429688 361.398438 C 195.050781 366.246094 201.09375 368.050781 205.949219 365.425781 L 232.265625 351.195312 C 237.113281 348.574219 238.917969 342.53125 236.296875 337.683594 Z M 166.488281 337.683594 C 165.523438 335.890625 163.996094 334.671875 162.332031 333.785156 C 146.40625 316.773438 157.714844 296.816406 157.714844 296.816406 C 157.714844 291.304688 167.6875 276.875 157.714844 276.875 L 147.742188 286.847656 C 137.769531 296.816406 137.769531 326.734375 137.769531 326.734375 L 117.824219 326.734375 C 112.3125 326.734375 107.851562 331.191406 107.851562 336.707031 C 107.851562 342.222656 112.3125 346.679688 117.824219 346.679688 L 128.875 346.679688 L 126.660156 347.875 C 121.8125 350.5 120.007812 356.542969 122.632812 361.398438 C 125.253906 366.246094 131.296875 368.050781 136.15625 365.425781 L 162.472656 351.195312 C 167.308594 348.574219 169.113281 342.53125 166.488281 337.683594 Z M 166.488281 337.683594 " fill-opacity="1" fill-rule="nonzero"/><path fill="#be1931" d="M 59.328125 77.4375 C 79.273438 127.300781 29.410156 127.300781 39.382812 147.242188 C 49.355469 167.1875 89.246094 127.300781 69.300781 77.4375 C 49.355469 27.574219 59.328125 77.4375 59.328125 77.4375 Z M 59.328125 77.4375 " fill-opacity="1" fill-rule="nonzero"/><path fill="#ffac33" d="M 77.9375 67.464844 C 77.9375 78.476562 97.210938 87.410156 77.9375 87.410156 C 58.660156 87.410156 8.128906 77.4375 8.128906 67.464844 C 8.128906 57.492188 18.769531 37.546875 38.046875 37.546875 C 57.324219 37.546875 77.9375 56.457031 77.9375 67.464844 Z M 77.9375 67.464844 " fill-opacity="1" fill-rule="nonzero"/><g clip-path="url(#id1)"><path fill="#c1694f" d="M 67.964844 217.050781 C 67.964844 157.214844 99.964844 87.410156 77.9375 87.410156 C 38.046875 87.410156 38.046875 69.550781 38.046875 47.519531 C 38.046875 25.492188 55.90625 7.632812 77.9375 7.632812 C 147.742188 7.632812 137.769531 97.382812 117.824219 137.269531 C 101.132812 170.660156 97.660156 217.050781 67.964844 217.050781 Z M 67.964844 217.050781 " fill-opacity="1" fill-rule="nonzero"/></g><g clip-path="url(#id2)"><path fill="#793e2c" d="M 367.132812 177.160156 C 367.132812 256.53125 317.269531 289.847656 267.410156 289.339844 C 247.125 307.25 218.277344 316.773438 187.632812 316.773438 C 121.546875 316.773438 67.964844 268.546875 67.964844 209.070312 C 67.964844 149.585938 121.546875 101.371094 187.632812 101.371094 C 217.546875 74.445312 257.4375 36.550781 287.355469 27.574219 C 347.1875 63.476562 367.132812 105.359375 367.132812 177.160156 Z M 367.132812 177.160156 " fill-opacity="1" fill-rule="nonzero"/></g><path fill="#793e2c" d="M 77.9375 37.546875 C 77.9375 38.203125 77.871094 38.851562 77.746094 39.492188 C 77.617188 40.136719 77.425781 40.757812 77.175781 41.363281 C 76.925781 41.96875 76.621094 42.542969 76.253906 43.089844 C 75.890625 43.632812 75.476562 44.136719 75.015625 44.601562 C 74.550781 45.0625 74.046875 45.476562 73.503906 45.839844 C 72.960938 46.203125 72.386719 46.511719 71.78125 46.761719 C 71.175781 47.011719 70.550781 47.203125 69.910156 47.328125 C 69.265625 47.457031 68.617188 47.519531 67.964844 47.519531 C 67.308594 47.519531 66.660156 47.457031 66.019531 47.328125 C 65.375 47.203125 64.753906 47.011719 64.148438 46.761719 C 63.542969 46.511719 62.96875 46.203125 62.421875 45.839844 C 61.878906 45.476562 61.375 45.0625 60.914062 44.601562 C 60.449219 44.136719 60.035156 43.632812 59.671875 43.089844 C 59.308594 42.542969 59 41.96875 58.75 41.363281 C 58.5 40.757812 58.3125 40.136719 58.183594 39.492188 C 58.054688 38.851562 57.992188 38.203125 57.992188 37.546875 C 57.992188 36.894531 58.054688 36.246094 58.183594 35.601562 C 58.3125 34.960938 58.5 34.335938 58.75 33.730469 C 59 33.128906 59.308594 32.550781 59.671875 32.007812 C 60.035156 31.464844 60.449219 30.960938 60.914062 30.496094 C 61.375 30.035156 61.878906 29.621094 62.421875 29.257812 C 62.96875 28.894531 63.542969 28.585938 64.148438 28.335938 C 64.753906 28.085938 65.375 27.894531 66.019531 27.769531 C 66.660156 27.640625 67.308594 27.574219 67.964844 27.574219 C 68.617188 27.574219 69.265625 27.640625 69.910156 27.769531 C 70.550781 27.894531 71.175781 28.085938 71.78125 28.335938 C 72.386719 28.585938 72.960938 28.894531 73.503906 29.257812 C 74.046875 29.621094 74.550781 30.035156 75.015625 30.496094 C 75.476562 30.960938 75.890625 31.464844 76.253906 32.007812 C 76.621094 32.550781 76.925781 33.128906 77.175781 33.730469 C 77.425781 34.335938 77.617188 34.960938 77.746094 35.601562 C 77.871094 36.246094 77.9375 36.894531 77.9375 37.546875 Z M 77.9375 37.546875 " fill-opacity="1" fill-rule="nonzero"/><g clip-path="url(#id3)"><path fill="#ffdba6" d="M 187.472656 101.371094 C 171.257812 101.390625 155.820312 104.332031 141.75 109.636719 C 180.78125 107.355469 205.082031 109.21875 237.503906 125.113281 C 228.296875 110.007812 203.675781 101.371094 187.472656 101.371094 Z M 366.394531 155.570312 C 365.539062 142.824219 363.863281 131.078125 361.210938 120.21875 C 298.882812 132.902344 327.261719 155.570312 366.394531 155.570312 Z M 346.601562 83.539062 C 339.859375 72.03125 331.234375 61.550781 320.441406 51.769531 C 249.019531 87.410156 290.464844 98.9375 346.601562 83.539062 Z M 358.6875 227.871094 C 324.761719 217.050781 316.335938 236.058594 336.597656 261.925781 C 311.667969 238.550781 296.398438 251.335938 303.25 281.871094 C 288.601562 260.050781 273.644531 279.796875 267.410156 289.339844 C 304.914062 289.71875 342.402344 270.949219 358.6875 227.871094 Z M 320.414062 51.75 C 311.070312 43.273438 300.179688 35.265625 287.355469 27.574219 C 217.546875 64.355469 267.410156 71.515625 320.414062 51.75 Z M 358.6875 227.859375 C 364.050781 213.660156 367.132812 196.835938 367.132812 177.160156 C 367.132812 169.632812 366.863281 162.492188 366.394531 155.589844 C 320.421875 159.398438 328.488281 184.332031 366.453125 189.007812 C 330.984375 189.625 324.761719 211.445312 358.6875 227.859375 Z M 346.621094 83.570312 C 282.527344 107.355469 309.792969 126.363281 361.199219 120.199219 C 357.929688 106.796875 353.140625 94.699219 346.621094 83.570312 Z M 346.621094 83.570312 " fill-opacity="1" fill-rule="nonzero"/></g><g clip-path="url(#id4)"><path fill="#000000" d="M 69.449219 26.824219 C 62.617188 26.824219 57.074219 32.367188 57.074219 39.199219 C 57.074219 46.035156 62.617188 51.574219 69.449219 51.574219 C 76.285156 51.574219 81.824219 46.035156 81.824219 39.199219 C 81.824219 32.367188 76.285156 26.824219 69.449219 26.824219 " fill-opacity="1" fill-rule="nonzero"/></g></svg>